<svg width="400" height="300" viewBox="0 0 400 300" fill="none" xmlns="http://www.w3.org/2000/svg">
<!-- Background with rounded corners -->
<rect width="400" height="300" rx="20" fill="url(#background)"/>

<!-- Desk -->
<rect x="0" y="220" width="400" height="80" fill="#D4A574"/>
<rect x="0" y="215" width="400" height="10" rx="5" fill="#C19660"/>

<!-- Laptop -->
<rect x="120" y="160" width="120" height="80" rx="5" fill="#2C3E50"/>
<rect x="125" y="165" width="110" height="70" rx="3" fill="#34495E"/>
<rect x="130" y="170" width="100" height="60" rx="2" fill="#3498DB"/>

<!-- Student figure -->
<circle cx="280" cy="120" r="25" fill="#F4A460"/>
<rect x="270" y="145" width="20" height="40" rx="10" fill="#4A90E2"/>
<rect x="265" y="150" width="30" height="35" rx="15" fill="#4A90E2"/>

<!-- Arms -->
<ellipse cx="255" cy="160" rx="8" ry="20" fill="#F4A460"/>
<ellipse cx="305" cy="160" rx="8" ry="20" fill="#F4A460"/>

<!-- Hair -->
<path d="M255 105 Q280 95 305 105 Q300 100 280 100 Q260 100 255 105" fill="#8B4513"/>

<!-- Notebook -->
<rect x="200" y="180" width="60" height="40" rx="3" fill="#FFFFFF"/>
<rect x="205" y="185" width="50" height="30" fill="#FFFFFF"/>
<line x1="210" y1="190" x2="240" y2="190" stroke="#3498DB" stroke-width="2"/>
<line x1="210" y1="195" x2="245" y2="195" stroke="#3498DB" stroke-width="2"/>
<line x1="210" y1="200" x2="235" y2="200" stroke="#3498DB" stroke-width="2"/>

<!-- Pen -->
<rect x="290" y="185" width="15" height="3" rx="1" fill="#E74C3C"/>

<!-- Books stack -->
<rect x="50" y="200" width="60" height="8" rx="2" fill="#E74C3C"/>
<rect x="52" y="192" width="56" height="8" rx="2" fill="#27AE60"/>
<rect x="54" y="184" width="52" height="8" rx="2" fill="#9B59B6"/>

<!-- Coffee cup -->
<ellipse cx="350" cy="205" rx="12" ry="8" fill="#FFFFFF"/>
<ellipse cx="350" cy="203" rx="10" ry="6" fill="#8B4513"/>
<rect x="360" y="198" width="8" height="6" rx="3" fill="#FFFFFF"/>

<defs>
<linearGradient id="background" x1="0%" y1="0%" x2="100%" y2="100%">
<stop offset="0%" style="stop-color:#E8F4FD;stop-opacity:1" />
<stop offset="100%" style="stop-color:#B8E6B8;stop-opacity:1" />
</linearGradient>
</defs>
</svg>
